<svg xmlns="http://www.w3.org/2000/svg" version="1.1" xmlns:xlink="http://www.w3.org/1999/xlink" width="595.276" height="841.89"><svg xmlns="http://www.w3.org/2000/svg" xmlns:xlink="http://www.w3.org/1999/xlink" xmlns:inkscape="http://www.inkscape.org/namespaces/inkscape" version="1.1" width="595.276" height="841.89" viewBox="0 0 595.276 841.89">
<defs>
<clipPath id="SvgjsClipPath1020">
<path transform="matrix(1,0,0,-1,0,841.89)" d="M0 841.89H595.276V0H0Z"></path>
</clipPath>
<clipPath id="SvgjsClipPath1019">
<path transform="matrix(1,0,0,-1,0,841.89)" d="M0-42.408H589.532V841.89H0Z"></path>
</clipPath>
<clipPath id="SvgjsClipPath1018">
<path transform="matrix(1,0,0,-1,0,841.89)" d="M0 841.89H595.276V0H0Z"></path>
</clipPath>
</defs>
<g>
<g inkscape:groupmode="layer" inkscape:label="Layer 1">
<g clip-path="url(#clip_0)">
<g opacity=".5">
<g clip-path="url(#clip_1)">
</g>
</g>
</g>
</g>
<g inkscape:groupmode="layer" inkscape:label="Layer 2">
<g clip-path="url(#clip_2)">
<path transform="matrix(1,0,0,-1,220.4681,358.21293)" d="M0 0C.19 3.378 .457 6.859 .814 10.436 1.543 17.744 2.565 24.618 3.766 31.021 4.306 31.514 4.869 31.871 5.441 32.122 13.145 35.507 25.68 21.156 26.745 19.915 28.828 17.823 30.908 16.758 31.787 17.362 32.396 17.78 32.504 19.05 32.64 20.652 32.705 21.412 32.698 22.042 32.681 22.468 32.82 28.102 32.887 33.87 32.872 39.766 32.854 46.779 32.721 53.612 32.489 60.255 32.158 61.383 31.524 62.92 30.209 64.246 27.971 66.501 25.17 66.727 21.574 67.468 21.574 67.468 18.119 68.181 11.553 70.468 7.146 72.003 .761 74.667-11.17 81.192-12.289 81.804-13.973 82.499-15.267 81.826-16.584 81.14-17.605 79.093-17.17 74.043-16.019 66.904-15.292 58.078-16.021 48.043-16.269 44.632-16.397 43.206-17.894 34.255-18.857 28.493-22.228 8.096-23.936-5.66-25.891-21.402-26.356-34.001-26.489-38.426-27.324-66.224-27.128-73.468-27.128-73.468-27.118-74.576-27.06-80.46-28.149-88.021-29.043-94.23-30.145-97.64-30.926-99.734-32.266-103.329-33.823-106.159-35.043-108.128-35.687-109.829-35.45-111.545-34.455-112.346-33.475-113.136-32.034-112.818-31.255-112.638-29.84-112.312-28.973-111.627-28.106-111.021-26.514-109.909-24.692-109.168-23-108.213-19.563-106.272-15.951-105.07-13.112-104.127-2.906-100.737 8.978-100.339 10.968-100.283 13.805-100.374 16.122-100.561 17.766-100.723 20.805-101.023 22.388-101.318 23.383-100.34 24.343-99.397 24.199-97.816 24.149-97.234 23.703-92.009 23.543-80.851 23.872-76.085 24.076-73.138 25.381-59.419 24.872-56.809 24.822-56.551 24.675-55.795 24.064-55.372 23.328-54.864 22.364-55.144 22.245-55.181 21.352-55.455 20.994-56.137 20.191-57.149 19.685-57.787 18.902-58.683 17.766-59.66 16.326-61.135 14.306-62.866 11.617-64.34 5.525-67.682-.376-67.72-3.255-67.532-3.75-61.472-4.066-54.959-4.106-48.043-4.149-40.615-3.869-33.644-3.383-27.191-1.393-26.667 1.541-26.162 5.043-26.511 11.335-27.138 15.721-30.15 17.638-31.66 18.323-32.724 19.668-33.051 20.617-32.511 21.369-32.083 21.787-31.16 21.638-30.213 21.922-25.202 22.261-20.108 22.66-14.936 22.972-10.882 23.313-6.881 23.681-2.936 23.705-1.123 23.45 1.096 22.021 1.979 20.38 2.993 17.959 1.77 16.936 1.3 13.753-.161 8.601-1.339 0 0" fill="#c91414"></path>
<path transform="matrix(1,0,0,-1,48.9574,330.0002)" d="M0 0C12.609 9.69 26.1 19.464 40.5 29.17 69.096 48.446 96.818 64.452 122.768 77.774 126.464 75.958 132.111 72.58 137.043 66.574 143.665 58.51 145.334 50.168 146.767 42.527 148.106 35.383 149.44 22.935 145.787 7.404 144.275 2.42 143.781-1.664 143.617-4.528 143.166-12.397 142.941-16.331 143.064-17.447 143.115-17.91 143.284-19.309 142.733-20.918 142.506-21.58 141.924-23.206 140.234-24.319 138.437-25.503 136.603-25.337 136.108-25.277H115.66C115.66-25.277 108-24.511 111.064-13.787 111.064-13.787 117.702 8.426 116.17 17.872 116.17 17.872 110.298 41.872 93.191 17.617 87.467 8.43 84.193 .234 82.277-5.521 82.277-5.521 70.668-40.391 84-75.574 84.303-76.375 85.39-79.135 87.606-82.226 90.16-85.785 93.605-90.589 99.064-90.945 104.022-91.269 107.641-87.692 108.053-87.273 111.337-83.928 111.577-79.572 111.83-74.979 112.055-70.884 111.475-67.549 110.981-65.462 110.342-63.351 109.685-61.829 109.165-60.775 108.916-60.269 108.575-59.621 108.766-58.894 108.889-58.424 109.266-57.818 110.53-57.218 113.467-55.821 119.189-55.402 120.426-55.319 124.781-55.144 129.137-54.97 133.492-54.795 134.064-54.932 134.909-55.224 135.638-55.915 136.746-56.964 136.983-58.384 137.106-59.106 138.434-66.874 138.572-77.171 138.16-89.266 137.61-105.358 136.486-111.572 133.937-117.286 131.542-122.655 128.578-126.625 126.383-129.191 123.055-132.263 117.549-136.525 110.33-136.758 101.317-137.049 89.339-131.434 76.596-108.766 76.596-108.766 71.234-107.489 57.957-114.638 57.957-114.638 51.319-119.489 46.468-107.745L1.277-9.957C1.277-9.957-2.043-4.596 0 0" fill="#c91414"></path>
<path transform="matrix(1,0,0,-1,498.8298,435.7023)" d="M0 0C-3.215-6.19-4.927-8.709-8.043-9.83-8.292-9.92-12.642-11.419-15.447-9.191-17.929-7.22-17.88-3.378-17.872-2.128-17.741 19.742-18.625 41.675-21.106 63.404-23.079 80.675-25.314 92.233-29.106 123.064-30.979 138.29-32.326 150.857-33.191 159.319-30.009 157.136-25.078 153.738-19.064 149.532-10.848 143.786-8.826 142.279-3.617 138.617 12.001 127.637 27.563 116.866 43.064 106.298 43.41 106.076 43.903 105.735 44.446 105.261 45.498 104.344 46.405 103.553 46.723 102.383 46.981 101.436 46.729 100.638 46.225 99.042 45.677 97.307 44.96 96.126 44.936 96.085 29.68 70.315 19.445 44.142 9.897 21.606 7.667 16.341 4.524 8.709 0 0" fill="#c91414"></path>
<path transform="matrix(1,0,0,-1,253.2482,528.55337)" d="M0 0C.193 1.264 .618 1.418 .926 3.39 1.101 4.511 1.082 5.363 1.188 6.467 1.188 6.467 1.418 8.876 .943 11.255 .27 14.626-2.827 19.032-6.555 21.15-13.738 25.232-22.729 20.873-25.057 19.745-40.426 12.295-47.214-9.797-46.504-27.234-45.783-44.933-36.892-68.781-19.951-73.25-18.561-73.617-9.332-75.903-2.238-70.485 4.734-65.159 7.184-54.269 3.709-43.064 3.709-43.064 3.028-38.298 11.369-38.128 15.642-37.424 20.084-36.779 24.688-36.213 29.775-35.587 34.695-35.101 39.433-34.731 41.609-34.378 46.334-33.941 49.667-36.766 52.477-39.149 53.659-43.309 52.901-51.234 50.6-75.266 34.254-94.244 33.156-95.489 29.303-99.859 20.634-109.491 6.262-115.915 2.191-117.735-3.089-119.082-13.482-121.702-25.072-124.624-34.086-126.461-52.291-130.043-60.384-131.635-69.937-133.501-80.689-135.578-81.204-135.677-82.901-135.935-84.513-134.952-86.642-133.655-86.903-130.605-87.014-129.192-89.388-99.046-87.771-39.616-87.771-39.616-87.452-27.884-87.98-29.126-87.525-20.766-86.428-.635-85.326 17.3-74.248 33.872-69.902 40.374-65.206 44.981-61.823 47.915-56.275 51.896-40.047 62.71-17.078 62.197-1.984 61.86 15.851 56.556 34.688 40.766 34.688 40.766 52.56 25.447 51.028 10.894 51.028 10.894 51.028-.596 33.667-4.681 33.667-4.681 15.539-9.787 5.071-7.745 4.288-7.592 2.622-7.09 1.407-5.619 .119-4.06-.276-1.803 0 0" fill="#c91414"></path>
<path transform="matrix(1,0,0,-1,291.0851,363.7023)" d="M0 0C-1.333-2.094-4.403-6.917-9.362-7.489-10.43-7.613-11.329-7.509-11.915-7.404L-7.745 35.234C-5.924 35.109-3.782 34.652-1.787 33.362 7.158 27.573 6.082 9.554 0 0M53.085-85.288C52.411-84.929 51.532-85.739 49.574-86.809 46.667-88.397 43.613-87.932 40.451-87.451 31.04-86.019 25.761-77.934 25.319-77.234 22.999-73.557 22.455-70.224 21.745-65.872 20.718-59.583 21.887-58.814 21.234-48 20.801-40.821 20.086-37.86 18.298-35.106 17.373-33.683 15.958-32.001 14.596-30.383 12.451-27.835 10.556-25.845 9.234-24.511 13.23-21.691 17.933-17.467 21.745-11.362 26.834-3.209 28.02 4.594 28.638 8.936 29.354 13.962 29.31 18.565 29.277 21.064 29.225 24.979 28.933 28.291 28.638 30.766 26.979 47.234 18.681 53.745 18.681 53.745 13.31 57.504 4.289 62.781-7.968 65.457-16.189 67.253-23.384 67.337-28.736 66.967-29.453 66.769-30.621 66.318-31.362 65.234-32.035 64.249-32.029 63.219-32 61.66-31.947 58.88-31.91 57.036-31.872 55.34-31.103 44.735-30.854 32.753-31.617 19.66-32.187 9.887-33.241 .834-34.553-7.404-39.404-29.106-40.426-90.766-40.426-90.766-41.319-97.915-36.851-98.043-36.851-98.043-27.217-99.796-20.012-102.581-15.117-104.872-8.191-108.114-3.554-110.626-2.238-109.221-.701-107.581-5.693-102.58-9.404-93.064-11.958-86.515-12.527-80.304-13.665-67.883-14.208-61.952-14.721-53.865-14.638-44.17-13.081-44.081-10.797-44.199-8.638-45.447-4.998-47.552-3.725-51.709-2-60.383-.964-65.592 .213-72.326 1.191-80.298 2.468-99.064 13.091-106.979 13.091-106.979 14.924-108.431 18.879-111.159 24.623-112.104 29.91-112.974 34.014-111.888 35.021-111.603 44.349-108.962 48.894-101.308 50.085-99.216 53.387-93.415 54.681-86.139 53.085-85.288" fill="#c91414"></path>
<path transform="matrix(1,0,0,-1,360.8085,378.02143)" d="M0 0C-.682-.749-1.623-.759-3.915-1.021-4.874-1.131-6.286-1.31-8.021-1.596-11.392-2.38-12.921-1.792-13.591-.93-14.224-.114-14.072 .956-13.979 1.468-12.125 14.01-9.613 27.079-6.277 40.574-5.602 43.304-4.906 45.999-4.191 48.66-3.795 47.395-3.252 45.566-2.702 43.34-1.227 37.367-.626 32.289-.128 25.234 .296 19.233 .667 11.523 .672 2.405 .712 1.726 .654 .719 0 0M109.198-10.979C108.56 .524 107.753 14.781 105.936 33.702 104.682 46.762 104.055 53.291 103.11 59.55 100.99 73.581 98.461 83.865 97.17 101.766 97.026 103.765 96.93 105.413 96.87 106.503 85.14 113.647 73.411 120.792 61.681 127.936 61.388 126.871 61.002 125.336 60.66 123.468 60.363 121.852 59.076 114.399 60.787 103.17 61.979 95.35 64.019 89.673 66.037 84.149 68.588 77.166 70.925 72.171 71.766 70.745 89.233 41.129 84.404 28.234 84.404 28.234L63.723 63.34C51.468 80.319 54.66 111.213 54.66 111.213 55.553 131.128 53.511 132.149 53.511 132.149 20.319 152.574 9.34 152.787 9.34 152.787 3.687 147.872-29.967 119.566-77.468 125.128-110.024 128.94-131.462 146.598-139.255 153.723-145.924 150.639-152.835 147.246-159.936 143.511-167.192 139.694-174.041 135.839-180.483 132.01-177.868 129.631-175.253 127.252-172.638 124.872-158.963 113.399-130.549 93.007-89.851 87.245-73.233 84.892-58.536 85.54-46.83 87.085-28.957 91.426-27.426 80.447-27.426 80.447-26.348 76.114-25.096 69.782-24.745 62.064-24.189 49.838-26.171 40.237-28.976 27.085-30.048 22.058-31.64 15.322-33.973 7.426-43.074-20.915-41.723-45.426-41.723-45.426-42.106-57.426-31.255-63.043-31.255-63.043-23.596-68.787-18.745-64.128-18.745-64.128-19.255-63.457-18.84-54.059-18.298-44.827-17.927-38.509-17.598-32.401-17.085-26.532-14.744-26.154-12.074-25.859-9.128-25.766-5.864-25.662-2.916-25.826-.362-26.106-.176-37.795-1.05-51.67-4.271-66.936-5.539-72.943-7.039-78.545-8.66-83.723-10.447-92.149-3.936-89.596-3.936-89.596 4.362-82.447 21.979-82.83 21.979-82.83 26.319-83.851 26.957-78.106 26.957-78.106 26.362-67.723 25.766-57.34 25.17-46.957 25.473-23.774 25.104-2.871 24.436 15.34 24.436 15.341 22.678 64.308 12.596 85.777 7.467 96.697 7 97.213 7 97.213 7 97.213 3.764 100.788 3.889 103.227 3.988 105.137 5 106.149 5 106.149 5 106.149 6.204 107.461 8.504 107.574 13.178 107.802 18.278 98.292 18.532 97.808 31.101 73.911 32.83 36.66 32.83 36.66 33.985 11.71 34.018-7.656 34.021-13.681 34.033-36.427 33.877-55.348 33.723-68.787 34.362-73.511 39.468-75.809 39.468-75.809 53.894-80.532 63.596-95.979 63.596-95.979 65.894-98.915 68.064-95.979 68.064-95.979 65.312-57.965 62.56-19.95 59.809 18.064 66.037 8.567 73.284-5.171 77.277-22.809 78.764-29.381 79.582-35.528 79.979-41.085 81-54.872 83.723-55.213 83.723-55.213 90.517-57.133 95.373-59.728 98.574-61.766 102.99-64.577 106.569-67.799 109.04-66.565 110.417-65.878 110.917-64.072 111.128-62.702 110.737-42.518 109.979-25.055 109.198-10.979" fill="#c91414"></path>
<path transform="matrix(1,0,0,-1,377.7381,593.9818)" d="M0 0C-4.452-1.317-8.276-.174-9.246 .143-25.221 5.372-28.955 36.106-25.717 56.79-24.513 64.477-21.386 84.451-8.483 88.705-2.6 90.645 2.744 88.468 3.39 88.194 16.001 82.845 17.591 62.643 18.283 53.854 19.738 35.371 16.039 4.746 0 0M54.964 11.216C55.73 70.45 47.56 94.194 47.56 94.194 30.198 138.109-12.696 124.067-12.696 124.067-28.489 119.156-37.978 110.856-42.568 106.163-58.328 90.049-61.69 70.093-63.566 58.958-65.051 50.141-65.189 42.673-65.036 37.514-65.618 27.775-65.538 5.252-51.568-16.742-48.882-20.97-37.008-38.836-15.419-49.125-11.847-50.827 1.082-55.162 26.794-63.763 32.591-65.702 37.375-67.294 40.581-68.359 47.097-71.476 53.03-71.546 55.254-68.761 55.684-68.223 56.111-67.408 56.241-66.146Z" fill="#c91414"></path>
<path transform="matrix(1,0,0,-1,440.2979,644.86386)" d="M0 0C.024 .628 .71 13.113 10.702 17.021 18.627 20.121 25.9 15.28 26.567 14.82 33.574 9.988 36.904-.026 33.115-8.301 30.372-14.293 24.068-18.995 16.879-18.894 9.644-18.791 5.093-13.876 4.404-13.106-.211-7.956-.072-1.856 0 0" fill="#c91414"></path>
</g>
</g>
</g>
</svg><style>@media (prefers-color-scheme: light) { :root { filter: none; } }
@media (prefers-color-scheme: dark) { :root { filter: none; } }
</style></svg>